# xmcd
#
# Track frame offsets:
#	150
#	20918
#	36527
#	61479
#	77015
#	94171
#	116869
#	134426
#	148942
#	168583
#	187486
#	203614
#	216596
#	239540
#	256242
#
# Disc length: 3634 seconds
#
# Revision: 1
# Processed by: cddbd v1.5.2PL0 Copyright (c) Steve Scherf et al.
# Submitted via: audiograbber 1.83.01
#
DISCID=f70e300f
DTITLE=Various Artist - CB - Country Hits of the Month - Vol. 310
DYEAR=2003
DGENRE=Karaoke
TTITLE0=Warren Brothers - Hey Mr. President
TTITLE1=George Strait - Tell Me Something Bad About Tulsa
TTITLE2=Faith Hill - One
TTITLE3=Brian McComas - 99.9% Sure (I've Never Been Here Before)
TTITLE4=Blake Shelton - Heavy Liftin'
TTITLE5=Shania Twain - Forever And For Always
TTITLE6=Dusty Drake - One Last Time
TTITLE7=McHayes - It Doesn't Mean I Don't Love You
TTITLE8=Chalee Tennison - Easy Lovin' You
TTITLE9=Brooks and Dunn - Red Dirt Road
TTITLE10=Terri Clark - Working Girl
TTITLE11=Hometown News  - First, Second Chance
TTITLE12=Lee Ann Womack - I Need You
TTITLE13=Eric Heatherly - When A Heart Begins To Drift
TTITLE14=Tammy Cochran - What Kind Of Woman Would I Be
EXTD=
EXTT0=
EXTT1=
EXTT2=
EXTT3=
EXTT4=
EXTT5=
EXTT6=
EXTT7=
EXTT8=
EXTT9=
EXTT10=
EXTT11=
EXTT12=
EXTT13=
EXTT14=
PLAYORDER=
